Coordinates
version=1
nRows=10
nColumns=40
inDegrees=yes

Units are S.I. units (second, meters, Newtons, ...)
If the header above contains a line with 'inDegrees', this indicates whether rotational values are in degrees (yes) or radians (no).

endheader
time	pelvis_tilt	pelvis_list	pelvis_rotation	pelvis_tx	pelvis_ty	pelvis_tz	hip_flexion_r	hip_adduction_r	hip_rotation_r	knee_angle_r	knee_angle_r_beta	ankle_angle_r	subtalar_angle_r	mtp_angle_r	hip_flexion_l	hip_adduction_l	hip_rotation_l	knee_angle_l	knee_angle_l_beta	ankle_angle_l	subtalar_angle_l	mtp_angle_l	lumbar_extension	lumbar_bending	lumbar_rotation	arm_flex_r	arm_add_r	arm_rot_r	elbow_flex_r	pro_sup_r	wrist_flex_r	wrist_dev_r	arm_flex_l	arm_add_l	arm_rot_l	elbow_flex_l	pro_sup_l	wrist_flex_l	wrist_dev_l
      3.85500000	    -35.05436529	      6.51392676	     -7.45441723	     -0.38900797	      0.65712275	     -0.92395687	     92.75061462	     -5.88417555	      6.55621657	     83.86526754	      1.46372505	     26.74982871	      0.00000000	      0.00000000	     86.00274193	    -15.45063769	     -4.46125120	     84.73508843	      1.47890629	     35.94961727	      0.00000000	      0.00000000	    -20.36136720	     -7.79805838	     -1.05624929	      5.85645433	    -45.22091868	     65.74073860	     85.51148086	     85.64529765	      0.00000000	      0.00000000	     -1.97756138	    -54.58778016	     66.26025816	     92.12220151	     85.90308745	      0.00000000	      0.00000000
      3.86000000	    -33.79219918	      7.08212533	     -7.52284324	     -0.38447107	      0.66309514	     -0.92426600	     90.98789482	     -6.17566522	      7.23947052	     83.44641174	      1.45641463	     26.75724854	      0.00000000	      0.00000000	     83.59332246	    -15.05373006	     -5.47094473	     83.92325583	      1.46473713	     36.06709057	      0.00000000	      0.00000000	    -20.73039136	     -8.43862383	     -1.28441452	      4.75149206	    -44.96956466	     63.86849183	     85.42160950	     85.63537100	      0.00000000	      0.00000000	     -3.54735340	    -54.43909902	     63.84575054	     92.10753267	     85.84343920	      0.00000000	      0.00000000
      3.86500000	    -33.60057735	      6.61002600	     -7.49529325	     -0.38133871	      0.66763034	     -0.92390412	     89.92236549	     -6.06891829	      6.87468257	     82.77185906	      1.44464147	     26.51222404	      0.00000000	      0.00000000	     82.80558485	    -15.03294539	     -5.12420087	     83.22596235	      1.45256707	     35.90973051	      0.00000000	      0.00000000	    -19.86084651	     -7.91530216	     -1.02112342	      3.71349886	    -44.86356255	     62.46562391	     85.34144336	     85.59959433	      0.00000000	      0.00000000	     -4.67535345	    -54.16128955	     62.28980291	     91.97927898	     85.80280494	      0.00000000	      0.00000000
      3.87000000	    -32.23367800	      7.17566213	     -7.79561494	     -0.37672259	      0.67404958	     -0.92352971	     88.01152943	     -6.10498930	      7.61661161	     82.25308810	      1.43558721	     26.38874501	      0.00000000	      0.00000000	     80.22858277	    -14.89490826	     -6.23781056	     82.33074134	      1.43694251	     35.80034025	      0.00000000	      0.00000000	    -20.14374468	     -8.68816911	     -0.99538560	      3.04462233	    -44.68896541	     61.51912731	     85.30564306	     85.57902104	      0.00000000	      0.00000000	     -5.33521296	    -54.18367875	     61.20488214	     92.04252332	     85.77263436	      0.00000000	      0.00000000
      3.87500000	    -31.40119785	      7.27283974	     -7.74152856	     -0.37271651	      0.67976117	     -0.92373072	     86.47055537	     -6.34970690	      7.82051421	     81.66918431	      1.42539616	     26.32971092	      0.00000000	      0.00000000	     78.45531231	    -14.51077576	     -6.62346245	     81.45767248	      1.42170459	     35.63639708	      0.00000000	      0.00000000	    -19.98362351	     -8.77351881	     -1.08688671	      1.56950105	    -44.57486633	     59.38414188	     85.61082844	     85.58973090	      0.00000000	      0.00000000	     -7.07872336	    -53.98093144	     58.69493827	     92.34939819	     85.76887091	      0.00000000	      0.00000000
      3.88000000	    -30.88815254	      6.92670984	     -7.69848614	     -0.36909005	      0.68524257	     -0.92361173	     85.07541858	     -6.38232763	      7.57459663	     80.94309287	      1.41272348	     26.02550125	      0.00000000	      0.00000000	     77.20630023	    -14.41210648	     -6.54286267	     80.63072961	      1.40727171	     35.31389445	      0.00000000	      0.00000000	    -19.42110653	     -8.38143893	     -1.00956819	      0.53374268	    -44.61111510	     58.05497020	     85.91345808	     85.63749439	      0.00000000	      0.00000000	     -8.63028826	    -53.76298020	     56.69194828	     92.59817475	     85.82837051	      0.00000000	      0.00000000
      3.88500000	    -30.50595499	      6.15425390	     -7.86191390	     -0.36570640	      0.69059233	     -0.92264466	     83.63844304	     -5.95558363	      6.95517133	     80.10512007	      1.39809809	     25.68591326	      0.00000000	      0.00000000	     76.23199182	    -14.78629498	     -6.01968553	     79.95923959	      1.39555200	     34.99693133	      0.00000000	      0.00000000	    -18.71252533	     -7.64364411	     -0.52234624	     -0.76903810	    -44.74175843	     56.49439028	     86.42105571	     85.64614829	      0.00000000	      0.00000000	    -10.16597410	    -53.77504316	     54.66945633	     93.21308597	     85.68965402	      0.00000000	      0.00000000
      3.89000000	    -29.32088015	      6.27128674	     -6.78000009	     -0.36085981	      0.69782078	     -0.92549595	     81.63327472	     -7.58686693	      6.92984583	     79.52735014	      1.38801411	     25.47749463	      0.00000000	      0.00000000	     74.04078002	    -13.10597139	     -6.21233807	     78.69844657	      1.37354701	     34.56695779	      0.00000000	      0.00000000	    -19.00518036	     -7.33148204	     -1.67314746	     -1.84106024	    -44.97416918	     55.08570647	     86.93107807	     85.66844982	      0.00000000	      0.00000000	    -11.31074056	    -53.45950823	     53.08940833	     93.53092873	     85.65191440	      0.00000000	      0.00000000
      3.89500000	    -28.97451807	      5.59054428	     -7.66255863	     -0.35795772	      0.70310333	     -0.92288680	     80.32279893	     -6.26630298	      6.56592447	     78.58032448	      1.37148539	     24.85898179	      0.00000000	      0.00000000	     73.03655252	    -14.43404552	     -6.18553681	     78.10902139	      1.36325960	     34.10716079	      0.00000000	      0.00000000	    -17.95446676	     -7.14992097	      0.24685484	     -4.45012965	    -45.02824164	     52.37717523	     87.68932598	     85.69769954	      0.00000000	      0.00000000	     -8.90208192	    -54.44907717	     56.34933602	     96.20705609	     87.70201746	      0.00000000	      0.00000000
      3.90000000	    -27.41480088	      6.03987468	     -8.04267650	     -0.35310312	      0.71095610	     -0.92253293	     78.03825550	     -6.35102272	      7.19325764	     77.79791600	      1.35782979	     24.45790477	      0.00000000	      0.00000000	     70.13111590	    -14.30447713	     -7.37265622	     76.93900118	      1.34283889	     33.83199713	      0.00000000	      0.00000000	    -18.38544234	     -7.80339321	      0.42370935	     -5.58610367	    -45.18394614	     51.16353788	     88.37631635	     85.69830004	      0.00000000	      0.00000000	     -9.75243493	    -54.73080901	     55.29458944	     96.89377128	     87.63896707	      0.00000000	      0.00000000
